<svg id="Слой_1" data-name="Слой 1" xmlns="http://www.w3.org/2000/svg" viewBox="0 0 786.83 615"><title>number-to-words-ru logo</title><path d="M328.49,455.29H580.58l57.26,157h81.41L489.25,11H419.82L190.24,612.24h81.82ZM454.54,109,557,390.4H352.46Z"/><path d="M192.53,542.91a93.88,93.88,0,0,1-18.12-13.65Q144,499.92,144,448.68T175.24,366q31.19-31.39,82.85-31.41,7.07,0,13.75.61l26.7-69.91q-17.71,6.46-39.62,6.49-45.87,0-73.35-28.31t-27.49-74.18q0-47.94,27.9-75.84t72.94-27.89q43.8,0,72.32,28.93a95,95,0,0,1,20.6,31.23l31.29-81.95q-48.15-41-124.21-41-79.76,0-128.52,44.64T81.63,168.07q0,44.63,23.14,79.76t63.23,55Q120.9,323,94.24,362.3t-26.66,88q0,77.7,52.28,124.18a170.61,170.61,0,0,0,49,30.43Z"/></svg>