<svg version="1" xmlns="http://www.w3.org/2000/svg" width="1049.333" height="1049.333" viewBox="0 0 787.000000 787.000000"><path d="M259.8 88.4c-.1.2-6.8.6-14.8 1-14.5.7-17.9 1-23.5 2.1-2.9.5-18 3.5-20 3.9-3.9.9-19.2 6-19.9 6.7-.6.5-1.6.9-2.3.9-2.2 0-26 12.2-29.8 15.2-.5.5-2.8 2.2-5 3.8-8 5.9-10 7.6-17.9 15.5-8.2 8.1-11.8 12.1-14.6 16.2-.8 1.1-3 4.2-4.7 6.8-1.8 2.5-3.3 5-3.3 5.4 0 .5-.7 1.4-1.5 2.1-.8.7-1.3 1.6-1 2 .3.5.1 1-.4 1.2-.6.2-4.5 7.8-5.6 10.8-.1.3-.7 1.8-1.4 3.5-2.3 5.3-6 16.5-5.5 16.5.3 0 0 .8-.5 1.7-.5 1-1.2 3.1-1.5 4.8-.3 1.6-1 5-1.5 7.5s-1.2 6.6-1.5 9.2c-.3 2.7-.9 6.8-1.2 9.1-1.3 10.2-.5 38.8 1.2 44.8.3 1 .6 3 .8 4.6.8 5.7 4.8 19.2 7.9 26.3 4.1 9.5 5.2 11.7 9.6 19 8.3 13.9 19.1 26.4 33.9 39.2 4.7 4.1 20.1 14.4 26 17.3 2.8 1.4 5.2 2.9 5.2 3.3 0 .4-3.1 2-6.8 3.7-6.4 2.9-24.2 13.1-25.2 14.5-.3.4-1.2 1.1-2.1 1.6-5.6 3.1-24.4 20.9-31.1 29.4-6.5 8.3-13.6 19.4-18.1 28.5-4.1 8.3-11 26.9-12.1 32.7-.6 3.2-1.8 9.9-2.2 12.3-2.6 14-2 44.4 1 59.2.3 1.5.8 4.3 1.1 6 .7 4.5 7.4 26.2 8.8 28.7.6 1.2 1.2 2.3 1.2 2.6.2 1.3 8.6 17.3 10.7 20.4 18.1 26.2 38 43.6 65.3 57.2l11 5.5 1.7-3.8c.9-2.1 2-4.7 2.4-5.8.3-1.1.7-2.2.8-2.5.1-.3.6-1.6 1-3 .5-1.4 1.6-4.3 2.6-6.5 1.6-3.7 7.3-18.4 7.6-19.5.1-.5.3-1 2-5.5.4-1.1.8-2.2.9-2.5.1-.3.5-1.4 1-2.5.4-1.1 1.4-3.5 2.2-5.4 1.7-4.4 1.1-6.2-2.9-8.4-1.8-1-4.9-3.1-6.8-4.8-1.9-1.7-4.4-3.9-5.5-4.8-2.7-2.1-12.5-13.6-12.5-14.5 0-.4-.9-1.6-2-2.8-1.1-1.2-2-2.8-2-3.5 0-.7-.4-1.3-1-1.3-.5 0-1-.4-1-1 0-.5-1.3-3.7-2.9-7.2-3.1-6.5-6.6-17.7-7.5-23.8-.3-1.9-.8-4.6-1.1-6-.3-1.4-.8-7.6-1-13.8-.3-6.2-.7-11.8-1-12.3-.4-.5-.3-.9.2-.9.4 0 .8-1.9.9-4.3.1-4.2.6-9 2-17.7.8-5.3 6.1-22 7.6-23.8.6-.6.7-1.2.3-1.2-.4 0-.3-.6.3-1.3.5-.6 2.4-3.8 4.2-7.1 12-22.3 35.6-40.7 61.5-47.9 14.5-4.1 20.1-4.8 38.7-4.8l12.6-.1 2.4-5.6c1.2-3.1 2.3-5.9 2.4-6.2 0-.3.5-1.6 1.1-3 .6-1.4 2-5.2 3.2-8.5 1.2-3.3 2.6-6.9 3.1-8 .6-1.1 1.9-4.5 2.9-7.5 1.1-3 3.7-10 5.9-15.5 2.1-5.5 4.2-11.2 4.5-12.7l.7-2.6-4.8 1.7c-13.2 4.8-40.7 6.1-58.7 2.6-19.3-3.7-37.5-13.8-50.7-28.2-3.9-4.1-10.2-12.3-10.3-13.3 0-.3-.9-1.7-1.8-3.2-3.8-5.5-9.1-19.8-11.3-30.3-2-9.1-2.6-36.7-1-45.5 2.2-12.2 4.2-19.2 8.1-28.2 1.9-4.4 5.4-10.7 7.7-14.1 4.4-6.5 17.8-20.7 19.6-20.7.5 0 1.2-.7 1.6-1.5.3-.8 1.2-1.5 1.9-1.5.8 0 2-.6 2.6-1.3 2.1-2.7 21.2-11.3 27.1-12.3 1.4-.3 3.2-.7 4-.9.8-.2 3.1-.7 5-1 14.6-2.5 35.6-2.2 46.5.7 2.2.5 4.7 1.1 5.5 1.3 6.8 1.4 27 10.9 27 12.7 0 .4.5.8 1.1.8 2.1 0 13.5 10.4 20 18.3 3.5 4.3 8.3 11.4 10.6 15.8l4.3 8.1 1.1-2.9c.6-1.5 1.5-3.7 2-4.8 1.4-3.7 5.7-15 8-21 1.2-3.3 2.6-7.1 3.2-8.5.6-1.4 1.1-3 1.3-3.5.2-.6 2.6-6.9 5.4-14 2.8-7.2 5.3-13.5 5.4-14 .3-1 .5-1.6 3.2-8.4.8-1.8 1.4-3.7 1.4-4.1 0-1.2-13.7-11.2-21.5-15.7-7.5-4.4-20-10.6-23.1-11.6-1-.3-4.9-1.7-8.6-3.1-3.8-1.4-6.8-2.3-6.8-2.1 0 .3-1.7-.2-3.7-.9-2.1-.8-6.3-2-9.3-2.6-3-.5-6.6-1.3-8-1.5-1.4-.3-4.7-.8-7.5-1.1-2.7-.3-5.3-.8-5.6-1-.3-.2-6.4-.6-13.5-.9-7.1-.4-13.4-.8-14.1-1-.6-.2-1.3-.2-1.5-.1zM419.6 98.5c-.7 1.1-2.7 6-4.5 11-1.7 4.9-3.8 10.3-4.6 12-.7 1.6-2.3 5.7-3.5 9-3 8.3-20.9 55.5-22 58-1.3 2.7-5.2 12.8-5.5 14-.1.5-.6 1.9-1 3s-2.3 5.8-4.1 10.5c-1.7 4.7-4.8 12.7-6.8 17.7-2 5.1-3.6 9.6-3.6 9.9 0 .3-.6 2-1.4 3.7-2.3 5.4-4.3 10.6-9.6 24.7-2.8 7.4-5.3 14.2-5.7 15-.3.8-.7 1.9-.9 2.5-.1.5-4.3 11.6-9.4 24.5-5 12.9-9.3 23.9-9.4 24.5-.2.5-.6 1.7-.9 2.5-.4.8-2.9 7.6-5.7 15-2.8 7.4-5.4 14.4-5.9 15.5-1 2.1-2.3 5.7-2.5 6.5-.2.6-5 13.2-6.7 17.5-.7 1.6-1.3 3.2-1.4 3.5-.1.3-.7 1.8-1.3 3.3-.7 1.6-1.2 3.4-1.2 4 0 .7-.7 2.1-1.5 3.1-.8 1.1-1.5 2.8-1.5 3.8s-.5 2.6-1 3.6c-.6.9-2.6 6-4.6 11.2-2 5.2-7.1 18.9-11.5 30.5-4.4 11.5-8.4 21.9-9 23-.5 1.2-1.1 2.7-1.3 3.5-.2.8-.9 2.8-1.5 4.5-3.3 8-6.3 16.1-6.4 17.2 0 .7-.4 1.3-.9 1.3-.4 0-.8.6-.8 1.2 0 1.1-20.6 56-23 61.3-1.1 2.5-19.1 49.6-19.4 51-.4 1.4-1.6 4.7-2.7 7-.5 1.1-2.7 6.7-4.8 12.5-2.2 5.8-4.5 11.8-5.2 13.5-.7 1.6-1.3 3.4-1.4 4-.2.5-1.9 5-3.8 10-4.6 11.8-5 12.9-5.1 13.5-.1.5-2.3 6.1-5.2 12.7-1.2 3-1.2 3.3.4 3.4 2.4.1 74.1.1 77.9 0 1.8-.1 3.2-.4 3.1-.9 0-.4.2-1.4.5-2.2.7-1.5 6.5-17.9 13.2-37 2-5.8 4.3-12 5.2-13.8.8-1.8 1.6-4 1.8-5 .2-.9 1.6-4.9 3-8.7 1.5-3.9 3.1-8.6 3.7-10.5.6-1.9 1.3-4 1.6-4.5.4-.6.7-1.2.7-1.5 0-.7 5.5-16 7-19.5.7-1.7 2.7-7.3 4.4-12.5 1.8-5.2 3.6-10.4 4.1-11.5.8-1.8 2.3-5.9 7.7-21.5.8-2.5 1.9-5.2 2.4-6.1.7-1.4 12.6-1.6 126.6-1.6h125.8l3.1 8.1c1.7 4.5 4.5 12.1 6.3 17.1 1.7 4.9 3.6 9.8 4.1 10.7.6 1 1 2.5 1 3.3 0 .8.4 2.3 1 3.3.5.9 2.3 5.7 4.1 10.7 1.7 4.9 3.5 9.9 3.9 11 .5 1.1 1.8 4.7 3 8s2.6 6.9 3.2 8c.5 1.2 1 2.7 1.2 3.5.2.8.6 2.2.9 3 .4.8 3.4 9.1 6.7 18.5 3.4 9.3 6.5 17.9 7 19 .5 1.1 3.2 8.5 6.1 16.5 2.9 8 5.6 14.9 6 15.5.8 1 79.4 1.3 80.4.3.5-.5-17.7-49.1-21-56.5-.8-1.7-1.5-3.4-1.5-3.7 0-.8-10.6-28.7-12.5-33.1-.7-1.7-2.2-5.5-3.3-8.5-3.9-10.8-8.4-22.5-9.7-25.5-.7-1.7-1.8-4.6-2.5-6.5-.7-1.9-1.6-4.4-2-5.5-1.3-3.2-2.3-6-2.4-6.5-.1-.3-.9-2.4-1.8-4.5-1-2.2-6.1-15.5-11.4-29.5-5.3-14-10.6-27.8-11.6-30.5-1.1-2.8-2.8-7.5-3.9-10.5s-2.4-6.4-2.9-7.5c-.5-1.1-3.2-8.1-6-15.5s-5.5-14.4-5.9-15.5c-1.3-2.8-5.2-13.2-9.6-25-2-5.5-4.5-11.9-5.6-14.2-1-2.4-1.9-4.6-1.9-5.1 0-.7-6-16.6-9-23.7-.4-1.1-1.8-4.7-3-8s-2.6-6.9-3.1-8c-2.1-5-9.1-23.2-9.4-24.5-.5-2.4-3.7-10.4-4.6-11.6-.5-.6-1-1.9-1.2-3-.2-1-1.1-3.6-2-5.8-.9-2.1-1.7-4.1-1.7-4.5 0-.5-3.8-10.5-12.5-32.6-1.3-3.3-3.5-8.9-4.8-12.5-1.3-3.6-2.8-7.4-3.2-8.5-.5-1.1-.9-2.2-1-2.5-.1-.3-.6-1.6-1.2-3s-2-5.2-3.2-8.5c-1.2-3.3-2.6-6.9-3.1-8-.5-1.1-1.8-4.7-3.1-8-1.2-3.3-2.9-8-3.9-10.5-.9-2.5-4.9-13.1-8.9-23.5-4-10.5-7.7-20.1-8.3-21.5-1.3-3.1-2.1-5.1-4.6-12-1.1-3-2.4-6.4-2.8-7.5-.4-1.1-.8-2.2-.9-2.5-.1-.3-.6-1.6-1.2-3s-3-7.5-5.3-13.5c-5.9-15.6-6.5-17.3-9.3-24l-2.4-6-34.2-.5c-33.4-.5-34.2-.5-35.5 1.5zM457 201.7c2.7 7.1 3.2 8.4 11.4 31.3 1.5 4.1 3.1 8.4 3.6 9.5.4 1.1 1.3 3.3 1.8 5 1.3 3.6 16.6 45.9 19.2 53 1 2.7 3.4 9.3 5.3 14.5 1.9 5.2 3.8 10.4 4.3 11.5.4 1.1.8 2.4 1 3 .1.5 2.6 7.3 5.4 15 2.9 7.7 5.6 15.1 6 16.5.5 1.4 1.8 5 3 8s3 8 4 11 6.2 17.2 11.4 31.5c5.3 14.3 9.6 26.3 9.6 26.8 0 .4.8 2.6 1.9 5 1 2.3 2.8 7.1 4 10.7 2.2 6.4 2.5 7.3 5.1 13.5 2 4.8 2.9 8.5 2.2 8.6-4.1.6-202.5.2-202.9-.4-.3-.5.2-2.5 1-4.5 1.8-4.3 2.9-7.3 3.2-8.7.3-1.1 4.2-11.4 5.8-15.5.6-1.4 1.1-3 1.2-3.5.3-.9 13.7-37.9 20.7-57 1.6-4.4 3.1-8.5 3.2-9 .2-.6.6-1.7.9-2.5 1.9-4.6 5.9-15.8 6.2-17.3.2-.9.6-2.1 1-2.6.5-.9 7.3-19.4 7.9-21.6.2-.6.6-1.7.9-2.5 1.7-4.2 11.9-32.7 12.2-34.2.2-.9 1.1-3 1.9-4.7.9-1.6 1.6-3.4 1.6-4 0-.5.5-2.2 1.2-3.8.6-1.5 1.2-3.3 1.4-3.8.5-1.7 3.4-9.9 4.1-11.5.3-.8.7-1.7.8-2 .1-.3.6-1.6 1.2-3s2-5.4 3.2-9c2.8-8.2 7-19.9 8.1-22.5.5-1.1 3.7-9.8 7.1-19.3 3.4-9.4 6.3-17.2 6.4-17.2.2 0 1.3 2.6 2.5 5.7z"/></svg>